<mxfile host="Electron" agent="Mozilla/5.0 (Windows NT 10.0; Win64; x64) AppleWebKit/537.36 (KHTML, like Gecko) draw.io/26.2.2 Chrome/134.0.6998.178 Electron/35.1.2 Safari/537.36" version="26.2.2">
  <diagram name="PÃ¡gina-1" id="71lNzWPudfQ-iiHFQwNy">
    <mxGraphModel dx="2068" dy="841" grid="1" gridSize="10" guides="1" tooltips="1" connect="1" arrows="1" fold="1" page="1" pageScale="1" pageWidth="900" pageHeight="1600" math="0" shadow="0">
      <root>
        <mxCell id="0" />
        <mxCell id="1" parent="0" />
        <mxCell id="91kElqbrMfZqcYAU1LhU-7" style="edgeStyle=orthogonalEdgeStyle;rounded=0;orthogonalLoop=1;jettySize=auto;html=1;entryX=0;entryY=0.5;entryDx=0;entryDy=0;" edge="1" parent="1" source="91kElqbrMfZqcYAU1LhU-1" target="91kElqbrMfZqcYAU1LhU-2">
          <mxGeometry relative="1" as="geometry" />
        </mxCell>
        <mxCell id="91kElqbrMfZqcYAU1LhU-1" value="Scanear a origem" style="rounded=1;whiteSpace=wrap;html=1;" vertex="1" parent="1">
          <mxGeometry x="60" y="270" width="120" height="60" as="geometry" />
        </mxCell>
        <mxCell id="91kElqbrMfZqcYAU1LhU-8" style="edgeStyle=orthogonalEdgeStyle;rounded=0;orthogonalLoop=1;jettySize=auto;html=1;" edge="1" parent="1" source="91kElqbrMfZqcYAU1LhU-2" target="91kElqbrMfZqcYAU1LhU-3">
          <mxGeometry relative="1" as="geometry" />
        </mxCell>
        <mxCell id="91kElqbrMfZqcYAU1LhU-2" value="Verificar se a pasta tem no destino" style="rounded=1;whiteSpace=wrap;html=1;" vertex="1" parent="1">
          <mxGeometry x="220" y="150" width="120" height="60" as="geometry" />
        </mxCell>
        <mxCell id="91kElqbrMfZqcYAU1LhU-9" style="edgeStyle=orthogonalEdgeStyle;rounded=0;orthogonalLoop=1;jettySize=auto;html=1;entryX=0;entryY=0.5;entryDx=0;entryDy=0;" edge="1" parent="1" source="91kElqbrMfZqcYAU1LhU-3" target="91kElqbrMfZqcYAU1LhU-4">
          <mxGeometry relative="1" as="geometry" />
        </mxCell>
        <mxCell id="91kElqbrMfZqcYAU1LhU-3" value="Verificar se o arquivo existe no destino" style="rounded=1;whiteSpace=wrap;html=1;" vertex="1" parent="1">
          <mxGeometry x="420" y="150" width="120" height="60" as="geometry" />
        </mxCell>
        <mxCell id="91kElqbrMfZqcYAU1LhU-10" style="edgeStyle=orthogonalEdgeStyle;rounded=0;orthogonalLoop=1;jettySize=auto;html=1;" edge="1" parent="1" source="91kElqbrMfZqcYAU1LhU-4" target="91kElqbrMfZqcYAU1LhU-6">
          <mxGeometry relative="1" as="geometry" />
        </mxCell>
        <mxCell id="91kElqbrMfZqcYAU1LhU-4" value="Cria Diff" style="rounded=1;whiteSpace=wrap;html=1;" vertex="1" parent="1">
          <mxGeometry x="600" y="150" width="120" height="60" as="geometry" />
        </mxCell>
        <mxCell id="91kElqbrMfZqcYAU1LhU-12" value="" style="edgeStyle=orthogonalEdgeStyle;rounded=0;orthogonalLoop=1;jettySize=auto;html=1;" edge="1" parent="1" source="91kElqbrMfZqcYAU1LhU-6" target="91kElqbrMfZqcYAU1LhU-11">
          <mxGeometry relative="1" as="geometry" />
        </mxCell>
        <mxCell id="91kElqbrMfZqcYAU1LhU-14" value="" style="edgeStyle=orthogonalEdgeStyle;rounded=0;orthogonalLoop=1;jettySize=auto;html=1;" edge="1" parent="1" source="91kElqbrMfZqcYAU1LhU-6" target="91kElqbrMfZqcYAU1LhU-13">
          <mxGeometry relative="1" as="geometry" />
        </mxCell>
        <mxCell id="91kElqbrMfZqcYAU1LhU-6" value="Le o diff" style="rounded=1;whiteSpace=wrap;html=1;" vertex="1" parent="1">
          <mxGeometry x="600" y="330" width="120" height="60" as="geometry" />
        </mxCell>
        <mxCell id="91kElqbrMfZqcYAU1LhU-15" style="edgeStyle=orthogonalEdgeStyle;rounded=0;orthogonalLoop=1;jettySize=auto;html=1;entryX=1;entryY=0.5;entryDx=0;entryDy=0;" edge="1" parent="1" source="91kElqbrMfZqcYAU1LhU-11" target="91kElqbrMfZqcYAU1LhU-6">
          <mxGeometry relative="1" as="geometry" />
        </mxCell>
        <mxCell id="91kElqbrMfZqcYAU1LhU-11" value="Copia o arquivo que falta" style="rounded=1;whiteSpace=wrap;html=1;" vertex="1" parent="1">
          <mxGeometry x="600" y="460" width="120" height="60" as="geometry" />
        </mxCell>
        <mxCell id="91kElqbrMfZqcYAU1LhU-13" value="Publica progresso" style="rounded=1;whiteSpace=wrap;html=1;" vertex="1" parent="1">
          <mxGeometry x="390" y="330" width="120" height="60" as="geometry" />
        </mxCell>
      </root>
    </mxGraphModel>
  </diagram>
</mxfile>
